# xmcd
#
# Track frame offsets: 
#        150
#        5975
#        32876
#        59579
#        87593
#        118024
#        141677
#        171007
#        193775
#        214472
#        237784
#
# Disc length: 3492 seconds
#
# Revision: 0
# Processed by: cddbd v1.5.2PL0 Copyright (c) Steve Scherf et al.
# Submitted via: ExactAudioCopy v0.99pb5
#
DISCID=af0da20b
DTITLE=Tuan Vu - Tinh Chi Dep
DYEAR=2002
DGENRE=Nhac Vang
TTITLE0=Introduction
TTITLE1=Tinh Chi Dep-Thuy Tien
TTITLE2=Di Vang Buon-Pho Thu+Thanh Son
TTITLE3=Doi Nga Chia Ly-Khanh Bang
TTITLE4=Ky Niem Nao Buon-Hoai An
TTITLE5=Dem Tam Su-Truc Phuong
TTITLE6=Chuyen Do Khong Em-Hoai Linh+Anh Phong
TTITLE7=Dua Em Ve Ben Do-Bang Giang
TTITLE8=Chuyen Dem Mua-Nguyen Hien+Hoai Linh
TTITLE9=Mua Qua Pho Vang-Ha Phuong
TTITLE10=Pho Vang Em Roi-Manh Phat
EXTD=
EXTT0=
EXTT1=
EXTT2=
EXTT3=
EXTT4=
EXTT5=
EXTT6=
EXTT7=
EXTT8=
EXTT9=
EXTT10=
PLAYORDER=
